:SAMPLES-PER-SECOND 30
:FULLY-SPECIFIED
:DEGREES
347
root  42.5715 34.7841 2.0418 -158.628 -85.4251 -175.841
RightUpLeg  -75.1351 -16.6336 5.36042
RightLeg  69.1297 -3.08758 -9.65158
RightFoot  -2.55686 -0.0198567 -0.00701463
RightToes  2.91037e-010 0 -3.6325e-017
Spine  73.9053 -6.44356 7.62542
Spine1  10.1933 3.53874 -13.4923
HEad  -52.4943 -3.96045 5.89688
LeftShoulder1  -0.200237 -26.3056 10.3727
LeftArm  -76.7263 -66.7435 39.6551
LeftForeArm  61.2424 -5.93847 -2.01083
LeftHand  -0.244104 0.0205437 5.32207
RightShoulder  2.1199 17.529 1.8777
RightArm  -64.1426 57.8159 -30.1065
RightForeArm  22.26 -1.60942 0.998875
RightHand  -10.3028 23.8713 -39.4618
LeftUpLeg  -61.5006 12.0089 -17.7803
LeftLeg  53.0685 6.93189 10.2636
LeftFoot  -20.6204 0.689477 6.94891
LeftToes  -1.10052e-010 1.3781e-010 -2.1811e-011
348
root  41.3442 34.8283 2.07149 -159.199 -84.7377 -175.046
RightUpLeg  -76.5337 -16.16 9.63168
RightLeg  59.3683 -5.46374 -10.4643
RightFoot  -5.15838 -0.069473 0.921542
RightToes  2.91037e-010 0 -3.6325e-017
Spine  73.9249 -6.50565 7.77146
Spine1  10.5104 3.46829 -13.5214
HEad  -52.8904 -3.54096 5.81095
LeftShoulder1  -0.333714 -26.0027 10.8924
LeftArm  -76.4456 -66.0436 39.5382
LeftForeArm  59.9638 -5.4556 -1.77391
LeftHand  -0.244104 0.0205437 5.32207
RightShoulder  1.77003 16.9031 0.285438
RightArm  -65.0921 58.0856 -30.5473
RightForeArm  23.0106 -1.57888 0.792862
RightHand  -9.64374 22.778 -38.474
LeftUpLeg  -59.6935 12.2849 -17.2944
LeftLeg  53.9287 7.23877 11.0213
LeftFoot  -23.1681 0.736787 5.79639
LeftToes  -1.10052e-010 1.3781e-010 -2.1811e-011
349
root  40.0122 34.7833 2.00799 -155.078 -84.2139 -178.836
RightUpLeg  -76.5055 -16.5839 15.4273
RightLeg  48.5832 -5.22624 -6.80173
RightFoot  -7.25442 -0.28482 6.28472
RightToes  2.91037e-010 0 -3.6325e-017
Spine  73.4993 -6.22741 7.6159
Spine1  10.9524 3.35142 -12.8643
HEad  -53.1364 -3.21586 5.72691
LeftShoulder1  -0.250436 -25.7798 10.5801
LeftArm  -76.728 -65.7414 39.9889
LeftForeArm  58.9127 -5.00873 -1.6698
LeftHand  -0.244104 0.0205437 5.32207
RightShoulder  1.50705 16.2708 -0.899112
RightArm  -66.1173 58.2483 -30.9416
RightForeArm  23.4247 -0.837138 0.655003
RightHand  -8.92819 21.5968 -37.3022
LeftUpLeg  -57.9644 12.2309 -17.0188
LeftLeg  55.2189 7.57651 12.0472
LeftFoot  -25.854 0.636609 3.76988
LeftToes  -1.10052e-010 1.3781e-010 -2.1811e-011
350
root  38.5417 34.6812 1.82545 -143.205 -83.7488 169.571
RightUpLeg  -75.4459 -17.6807 21.2264
RightLeg  39.3595 -1.72019 -1.75773
RightFoot  -6.53695 -0.392515 8.53357
RightToes  2.91037e-010 0 -3.6325e-017
Spine  73.068 -6.06977 7.03651
Spine1  11.4552 3.09229 -12.4714
HEad  -52.8756 -3.01151 6.15356
LeftShoulder1  -0.208602 -25.5115 10.4261
LeftArm  -76.7226 -66.0944 39.3452
LeftForeArm  58.4301 -5.01444 -1.60026
LeftHand  -0.244104 0.0205437 5.32207
RightShoulder  1.58108 16.1343 -0.414073
RightArm  -66.9461 58.1685 -32.036
RightForeArm  23.4058 -0.0370285 0.748788
RightHand  -8.67246 21.2299 -36.7804
LeftUpLeg  -56.0026 12.1494 -17.7159
LeftLeg  56.3874 7.79668 12.9193
LeftFoot  -27.7347 0.518169 2.42745
LeftToes  -1.10052e-010 1.3781e-010 -2.1811e-011
351
root  37.0515 34.5636 1.57739 -132.399 -82.854 158.56
RightUpLeg  -74.1626 -17.8937 23.924
RightLeg  36.1084 0.752587 0.365341
RightFoot  -4.01365 -0.144525 1.97191
RightToes  2.91037e-010 0 -3.6325e-017
Spine  72.9426 -6.10999 6.67861
Spine1  12.1015 2.72599 -12.5903
HEad  -52.3502 -3.11315 6.63465
LeftShoulder1  -0.286126 -25.2255 10.7411
LeftArm  -75.4301 -66.6523 37.0777
LeftForeArm  57.9726 -5.54803 -1.6386
LeftHand  -0.244104 0.0205437 5.32207
RightShoulder  1.65722 16.0283 0.0785244
RightArm  -67.2232 58.0209 -32.0652
RightForeArm  24.041 0.435848 0.636842
RightHand  -9.00716 21.8609 -37.2612
LeftUpLeg  -53.8416 12.6587 -18.5839
LeftLeg  57.9949 7.43456 13.1382
LeftFoot  -28.4795 0.344933 1.17609
LeftToes  -1.10052e-010 1.3781e-010 -2.1811e-011
